<svg id="Layer_1" xmlns="http://www.w3.org/2000/svg" viewBox="0 0 150 150"><g id="surface1"><path d="M50.43,0A13.28,13.28,0,0,0,41,3.92L17.77,27.11a13.3,13.3,0,0,0-3.92,9.47V142a8.05,8.05,0,0,0,8,8H129a8.05,8.05,0,0,0,8-8V8a8.05,8.05,0,0,0-8-8Zm.92,5.36H129A2.69,2.69,0,0,1,131.71,8V142a2.69,2.69,0,0,1-2.68,2.68H21.89A2.68,2.68,0,0,1,19.21,142V37.5h24.1a8.05,8.05,0,0,0,8-8ZM46,6.7V29.46a2.68,2.68,0,0,1-2.68,2.68H20.55a7.6,7.6,0,0,1,1-1.24L44.75,7.71A7.41,7.41,0,0,1,46,6.7ZM70.27,34.83a4.13,4.13,0,0,0-2.15.86,4,4,0,0,0-1.37,4.15,34.79,34.79,0,0,1,1.18,14.43,24.49,24.49,0,0,0-3.3-1.6,4,4,0,0,0-5.37,3.45c-.33,5.75-2.56,9.36-4.93,13.19-2.7,4.37-5.75,9.33-5.75,17.5a29.5,29.5,0,0,0,29.48,29.52l1.09,0c15.7-.56,28.45-14.08,28.45-30.14v-.71a49.18,49.18,0,0,0-5.33-22.39c-.61-1.22-1.28-2.4-2-3.57a3.93,3.93,0,0,0-4.39-1.74,3.89,3.89,0,0,0-2.78,2.89c-2.83-10.31-10-19.46-20.6-25.33A4,4,0,0,0,70.27,34.83Zm2.46,6.88c13.46,8.87,19.42,24.16,14.86,38.95A2.7,2.7,0,0,0,89.37,84a2.74,2.74,0,0,0,.79.11,2.66,2.66,0,0,0,2.56-1.88,40.29,40.29,0,0,0,1.43-6.61,25.36,25.36,0,0,0,3.67-9.46,43.76,43.76,0,0,1,4.42,19.29v.71C102.24,99.38,91.8,110.49,79,111a24.14,24.14,0,0,1-25-24.14c0-6.64,2.41-10.54,5-14.69,2.25-3.63,4.76-7.71,5.54-13.68,2.84,1.42,6.33,4.07,7,8.63a2.68,2.68,0,1,0,5.31-.76,15.09,15.09,0,0,0-3.89-8.13A42.48,42.48,0,0,0,72.73,41.71ZM27.24,128.57a2.67,2.67,0,0,0-2.68,2.68v5.36a2.68,2.68,0,1,0,5.36,0v-5.36A2.67,2.67,0,0,0,27.24,128.57Zm13.4,0A2.67,2.67,0,0,0,38,131.25v5.36a2.68,2.68,0,1,0,5.35,0v-5.36A2.67,2.67,0,0,0,40.64,128.57Zm13.39,0a2.67,2.67,0,0,0-2.68,2.68v5.36a2.68,2.68,0,1,0,5.36,0v-5.36A2.67,2.67,0,0,0,54,128.57Zm13.39,0a2.67,2.67,0,0,0-2.68,2.68v5.36a2.68,2.68,0,1,0,5.36,0v-5.36A2.67,2.67,0,0,0,67.42,128.57Zm13.39,0a2.67,2.67,0,0,0-2.67,2.68v5.36a2.68,2.68,0,1,0,5.35,0v-5.36A2.67,2.67,0,0,0,80.81,128.57Zm13.4,0a2.67,2.67,0,0,0-2.68,2.68v5.36a2.68,2.68,0,1,0,5.36,0v-5.36A2.67,2.67,0,0,0,94.21,128.57Zm13.39,0a2.67,2.67,0,0,0-2.68,2.68v5.36a2.68,2.68,0,1,0,5.36,0v-5.36A2.67,2.67,0,0,0,107.6,128.57Zm13.39,0a2.67,2.67,0,0,0-2.68,2.68v5.36a2.68,2.68,0,1,0,5.36,0v-5.36A2.67,2.67,0,0,0,121,128.57Z" fill="#161616"/></g></svg>