<svg id="Layer_1" data-name="Layer 1" xmlns="http://www.w3.org/2000/svg" viewBox="0 0 150 150"><g id="error"><path d="M74.5,1.12A29.16,29.16,0,0,0,55.23,52.19H8.84a7.33,7.33,0,0,0-7.3,7.3V98.4a7.32,7.32,0,0,0,7.3,7.29h9.59l-2.14,38.65A4.84,4.84,0,0,0,17.6,148a4.92,4.92,0,0,0,3.54,1.52h5.1A4.84,4.84,0,0,0,31,145.4l6.62-39.71h73.7L118,145.4a4.84,4.84,0,0,0,4.79,4.07h5.1a4.86,4.86,0,0,0,4.85-5.13l-2.14-38.65h9.59a7.31,7.31,0,0,0,7.29-7.29V59.49a7.32,7.32,0,0,0-7.29-7.3H93.76A29.16,29.16,0,0,0,74.5,1.12ZM74.5,6a24.31,24.31,0,0,1,10.57,46.2H63.93A24.31,24.31,0,0,1,74.5,6ZM64.77,23a4.87,4.87,0,0,0-4.86,4.86v4.87a4.87,4.87,0,0,0,4.86,4.86H84.23a4.87,4.87,0,0,0,4.86-4.86V27.87A4.87,4.87,0,0,0,84.23,23Zm0,4.86H84.23v4.87H64.77ZM8.84,57.06H24L6.41,86.38V59.49A2.43,2.43,0,0,1,8.84,57.06Zm20.83,0H48.32L22.05,100.83H8.84A2.43,2.43,0,0,1,6.41,98.4V95.82Zm24.32,0H72.64L51.44,92.37a2.44,2.44,0,0,0,.84,3.34,2.38,2.38,0,0,0,1.24.35,2.41,2.41,0,0,0,2.09-1.18l22.7-37.82H97L70.69,100.83h-43Zm48.64,0h37.53a2.43,2.43,0,0,1,2.43,2.43v2.57l-23.26,38.77H100.68l13.63-22.71a2.43,2.43,0,0,0-4.17-2.49L95,100.83H76.36Zm18.42,3.26a2.48,2.48,0,0,0-2.44,1.15L115.32,67a2.45,2.45,0,0,0,.83,3.35,2.62,2.62,0,0,0,1.26.34,2.42,2.42,0,0,0,2.08-1.18l3.3-5.5a2.43,2.43,0,0,0-.83-3.33A2.63,2.63,0,0,0,121.05,60.32ZM142.59,71.5V98.4a2.43,2.43,0,0,1-2.43,2.43H125ZM23.3,105.69h9.41L26.23,144.6H21.14Zm93,0h9.41l2.17,38.91h-5.1ZM38,130a2.43,2.43,0,0,0-2.43,2.43v4.87a2.43,2.43,0,0,0,4.86,0v-4.87A2.43,2.43,0,0,0,38,130Zm12.16,0a2.43,2.43,0,0,0-2.43,2.43v4.87a2.43,2.43,0,0,0,4.86,0v-4.87A2.43,2.43,0,0,0,50.18,130Zm12.16,0a2.43,2.43,0,0,0-2.43,2.43v4.87a2.43,2.43,0,1,0,4.86,0v-4.87A2.43,2.43,0,0,0,62.34,130Zm12.16,0a2.43,2.43,0,0,0-2.43,2.43v4.87a2.43,2.43,0,0,0,4.86,0v-4.87A2.43,2.43,0,0,0,74.5,130Zm12.16,0a2.43,2.43,0,0,0-2.43,2.43v4.87a2.43,2.43,0,0,0,4.86,0v-4.87A2.43,2.43,0,0,0,86.66,130Zm12.16,0a2.43,2.43,0,0,0-2.44,2.43v4.87a2.44,2.44,0,0,0,4.87,0v-4.87A2.43,2.43,0,0,0,98.82,130ZM111,130a2.43,2.43,0,0,0-2.44,2.43v4.87a2.44,2.44,0,0,0,4.87,0v-4.87A2.43,2.43,0,0,0,111,130Z"/></g></svg>