<svg id="Layer_1" xmlns="http://www.w3.org/2000/svg" viewBox="0 0 150 150"><g id="surface1"><path d="M70.27,0a8,8,0,0,0-7.19,4.44l-3.6,7.21A40.24,40.24,0,0,0,28.05,45.91L22.24,92.49a24.12,24.12,0,0,1-3.87,10.38L6,121.44a8,8,0,0,0,6.67,12.49H56.46a18.73,18.73,0,0,0,37.08,0h43.78A8,8,0,0,0,144,121.44l-12.38-18.57a24.1,24.1,0,0,1-3.86-10.38L122,45.91A40.24,40.24,0,0,0,90.52,11.65l-3.6-7.21A8,8,0,0,0,79.73,0Zm0,5.36h9.46a2.64,2.64,0,0,1,2.39,1.48l2,4c-.68,0-1.34-.1-2-.1H67.93c-.68,0-1.35.07-2,.1l2-4A2.63,2.63,0,0,1,70.27,5.36ZM67.93,16.07H82.07a34.86,34.86,0,0,1,34.55,30.5l5.83,46.59a29.69,29.69,0,0,0,4.72,12.69l12.37,18.55a2.68,2.68,0,0,1-2.22,4.17H12.68a2.68,2.68,0,0,1-2.22-4.16L22,107.14H96.88a2.68,2.68,0,1,0,0-5.35H25a29.92,29.92,0,0,0,2.51-8.63l5.82-46.59A34.87,34.87,0,0,1,67.93,16.07Zm12.09,8a2.68,2.68,0,1,0,0,5.35,20.74,20.74,0,0,1,13.24,4.77,2.75,2.75,0,0,0,1.7.61,2.68,2.68,0,0,0,1.72-4.75A26.21,26.21,0,0,0,80,24.11Zm21.32,13.81a2.54,2.54,0,0,0-1,.24A2.66,2.66,0,0,0,99,41.7a20.83,20.83,0,0,1,1.75,6.75,2.68,2.68,0,0,0,2.67,2.44h.23A2.68,2.68,0,0,0,106.06,48a26.31,26.31,0,0,0-2.21-8.47A2.69,2.69,0,0,0,101.34,37.92Zm5.58,63.87a2.68,2.68,0,0,0,0,5.35h11.39a2.68,2.68,0,1,0,0-5.35ZM21.43,112.5a2.68,2.68,0,0,0-2.68,2.68v5.36a2.68,2.68,0,0,0,5.36,0v-5.36A2.69,2.69,0,0,0,21.43,112.5Zm13.39,0a2.69,2.69,0,0,0-2.68,2.68v5.36a2.68,2.68,0,0,0,5.36,0v-5.36A2.68,2.68,0,0,0,34.82,112.5Zm13.4,0a2.68,2.68,0,0,0-2.68,2.68v5.36a2.68,2.68,0,0,0,5.35,0v-5.36A2.68,2.68,0,0,0,48.22,112.5Zm13.39,0a2.68,2.68,0,0,0-2.68,2.68v5.36a2.68,2.68,0,0,0,5.36,0v-5.36A2.69,2.69,0,0,0,61.61,112.5Zm13.39,0a2.69,2.69,0,0,0-2.68,2.68v5.36a2.68,2.68,0,0,0,5.36,0v-5.36A2.68,2.68,0,0,0,75,112.5Zm13.39,0a2.68,2.68,0,0,0-2.67,2.68v5.36a2.68,2.68,0,0,0,5.35,0v-5.36A2.68,2.68,0,0,0,88.39,112.5Zm13.4,0a2.68,2.68,0,0,0-2.68,2.68v5.36a2.68,2.68,0,0,0,5.36,0v-5.36A2.69,2.69,0,0,0,101.79,112.5Zm13.39,0a2.68,2.68,0,0,0-2.68,2.68v5.36a2.68,2.68,0,0,0,5.36,0v-5.36A2.69,2.69,0,0,0,115.18,112.5Zm13.39,0a2.69,2.69,0,0,0-2.68,2.68v5.36a2.68,2.68,0,0,0,5.36,0v-5.36A2.68,2.68,0,0,0,128.57,112.5ZM61.88,133.93H88.12a13.39,13.39,0,0,1-26.24,0Z" fill="#161616"/></g></svg>