<svg id="Layer_1" data-name="Layer 1" xmlns="http://www.w3.org/2000/svg" viewBox="0 0 150 150"><g id="surface1"><path d="M12.5,0A8.23,8.23,0,0,0,8.36,1.2,8.35,8.35,0,0,0,4.25,8.43V141.26a8.33,8.33,0,0,0,4.1,7.23,8.42,8.42,0,0,0,8.33.19l123-66.42a8.42,8.42,0,0,0,0-14.82L16.68,1A8.24,8.24,0,0,0,12.5,0Zm.18,5.61A2.73,2.73,0,0,1,14,6l3.17,1.72a2.78,2.78,0,0,0-1.7,2.56,2.81,2.81,0,0,0,2.81,2.81h5.62a2.67,2.67,0,0,0,1.86-.75L137,72.38a2.82,2.82,0,0,1,0,5L26.66,136.9c0-.09.07-.17.07-.25a2.81,2.81,0,0,0-2.81-2.81H18.3a2.81,2.81,0,1,0,0,5.61H22L14,143.73a2.81,2.81,0,0,1-4.15-2.47V8.43a2.83,2.83,0,0,1,2.82-2.81ZM18.29,21.5a2.81,2.81,0,1,0,0,5.61h5.62a2.81,2.81,0,0,0,0-5.61Zm0,14a2.81,2.81,0,1,0,0,5.62h5.62a2.81,2.81,0,0,0,0-5.62Zm0,14a2.81,2.81,0,1,0,0,5.62h5.62a2.81,2.81,0,0,0,0-5.62Zm0,14a2.81,2.81,0,0,0,0,5.62h5.62a2.81,2.81,0,0,0,0-5.62Zm0,14.05a2.81,2.81,0,1,0,0,5.61h5.62a2.81,2.81,0,0,0,0-5.61Zm95.28,0a2.61,2.61,0,0,0-1.08.3l-8.14,4.2a2.8,2.8,0,0,0,1.29,5.29,2.77,2.77,0,0,0,1.28-.3L115.07,83a2.82,2.82,0,0,0,1.2-3.79A2.78,2.78,0,0,0,113.57,77.67ZM94.91,87.28a2.7,2.7,0,0,0-1.08.3L36.74,117a2.81,2.81,0,0,0,1.3,5.3,2.84,2.84,0,0,0,1.28-.31L96.41,92.58a2.83,2.83,0,0,0,1.21-3.79A2.8,2.8,0,0,0,94.91,87.28ZM18.29,91.71a2.81,2.81,0,1,0,0,5.62h5.62a2.81,2.81,0,0,0,0-5.62Zm0,14a2.81,2.81,0,1,0,0,5.62h5.62a2.81,2.81,0,0,0,0-5.62Zm0,14a2.81,2.81,0,0,0,0,5.62h5.62a2.81,2.81,0,0,0,0-5.62Z" fill="#161616"/></g></svg>